# Blender v2.71 (sub 0) OBJ File: 'diamond.blend'
# www.blender.org
mtllib diamond.mtl
o diamond_Cube
v -0.889708 0.575013 0.491640
v -0.530175 0.575013 0.856267
v -0.607789 0.839346 0.335855
v -0.362180 0.839346 0.584944
v 0.889708 0.575013 0.491640
v 0.000000 0.575013 1.000000
v 0.530175 0.575013 0.856267
v 0.000000 0.839346 0.683133
v 0.607789 0.839346 0.335855
v 0.362180 0.839346 0.584944
v -0.889708 0.575013 -0.491640
v -1.000000 0.575013 0.000000
v -0.530175 0.575013 -0.856267
v -0.683133 0.839346 0.000000
v -0.607789 0.839346 -0.335855
v -0.362180 0.839346 -0.584944
v 0.000000 -0.885594 0.000000
v 0.889708 0.575013 -0.491640
v 0.000000 0.575013 -1.000000
v 1.000000 0.575013 0.000000
v 0.530175 0.575013 -0.856267
v 0.000000 0.839346 0.000000
v 0.000000 0.839346 -0.683133
v 0.683133 0.839346 0.000000
v 0.607789 0.839346 -0.335855
v 0.362180 0.839346 -0.584944
vn -0.591500 -0.556700 0.583300
vn -0.218300 -0.551300 0.805200
vn -0.811400 -0.555500 0.182000
vn 0.000000 1.000000 0.000000
vn -0.171100 0.756600 0.631100
vn -0.634100 0.760100 0.142200
vn -0.461900 0.761100 0.455500
vn 0.591500 -0.556700 0.583300
vn 0.218300 -0.551300 0.805200
vn 0.811400 -0.555500 0.182000
vn 0.171100 0.756600 0.631100
vn 0.634100 0.760100 0.142200
vn 0.461900 0.761100 0.455500
vn -0.591500 -0.556700 -0.583300
vn -0.218300 -0.551300 -0.805200
vn -0.811400 -0.555500 -0.182000
vn -0.171100 0.756600 -0.631100
vn -0.634100 0.760100 -0.142200
vn -0.461900 0.761100 -0.455500
vn 0.591500 -0.556700 -0.583300
vn 0.218300 -0.551300 -0.805200
vn 0.811400 -0.555500 -0.182000
vn 0.171100 0.756600 -0.631100
vn 0.634100 0.760100 -0.142200
vn 0.461900 0.761100 -0.455500
usemtl Material
s off
f 1//1 17//1 2//1
f 6//2 2//2 17//2
f 17//3 1//3 12//3
f 3//4 22//4 14//4
f 3//4 4//4 22//4
f 2//5 6//5 8//5
f 1//6 3//6 14//6
f 1//7 2//7 4//7
f 22//4 4//4 8//4
f 5//8 7//8 17//8
f 6//9 17//9 7//9
f 17//10 20//10 5//10
f 9//4 24//4 22//4
f 9//4 22//4 10//4
f 8//11 6//11 7//11
f 5//12 20//12 24//12
f 5//13 9//13 10//13
f 22//4 8//4 10//4
f 11//14 13//14 17//14
f 19//15 17//15 13//15
f 17//16 12//16 11//16
f 15//4 14//4 22//4
f 15//4 22//4 16//4
f 23//17 19//17 13//17
f 11//18 12//18 14//18
f 11//19 15//19 16//19
f 22//4 23//4 16//4
f 18//20 17//20 21//20
f 19//21 21//21 17//21
f 17//22 18//22 20//22
f 25//4 22//4 24//4
f 25//4 26//4 22//4
f 21//23 19//23 23//23
f 18//24 25//24 24//24
f 18//25 21//25 26//25
f 22//4 26//4 23//4
f 4//5 2//5 8//5
f 12//6 1//6 14//6
f 3//7 1//7 4//7
f 10//11 8//11 7//11
f 9//12 5//12 24//12
f 7//13 5//13 10//13
f 16//17 23//17 13//17
f 15//18 11//18 14//18
f 13//19 11//19 16//19
f 26//23 21//23 23//23
f 20//24 18//24 24//24
f 25//25 18//25 26//25
